<?xml version="1.0" encoding="UTF-8"?>
<svg width="140" height="32" viewBox="0 0 140 32" fill="none" xmlns="http://www.w3.org/2000/svg">
  <path d="M16 6C10.4772 6 6 10.4772 6 16C6 21.5228 10.4772 26 16 26C21.5228 26 26 21.5228 26 16C26 10.4772 21.5228 6 16 6ZM16 8C20.4183 8 24 11.5817 24 16C24 20.4183 20.4183 24 16 24C11.5817 24 8 20.4183 8 16C8 11.5817 11.5817 8 16 8Z" fill="url(#paint0_linear)"/>
  <path d="M15 12V20L21 16L15 12Z" fill="white"/>
  <path d="M37.184 10.72H39.68V22H37.184V10.72ZM45.7392 22.168C44.6592 22.168 43.7472 21.88 43.0032 21.304C42.2752 20.728 41.8432 19.944 41.7072 18.952H44.1072C44.1872 19.352 44.3792 19.672 44.6832 19.912C44.9872 20.136 45.3712 20.248 45.8352 20.248C46.2672 20.248 46.5952 20.16 46.8192 19.984C47.0592 19.792 47.1792 19.552 47.1792 19.264C47.1792 18.928 47.0272 18.688 46.7232 18.544C46.4352 18.384 45.9712 18.208 45.3312 18.016C44.7072 17.84 44.1952 17.664 43.7952 17.488C43.3952 17.312 43.0512 17.04 42.7632 16.672C42.4752 16.304 42.3312 15.808 42.3312 15.184C42.3312 14.672 42.4672 14.208 42.7392 13.792C43.0272 13.376 43.4272 13.048 43.9392 12.808C44.4512 12.568 45.0432 12.448 45.7152 12.448C46.7472 12.448 47.5712 12.72 48.1872 13.264C48.8032 13.792 49.1632 14.512 49.2672 15.424H46.9872C46.9232 15.024 46.7552 14.72 46.4832 14.512C46.2112 14.288 45.8592 14.176 45.4272 14.176C45.0432 14.176 44.7472 14.264 44.5392 14.44C44.3312 14.6 44.2272 14.824 44.2272 15.112C44.2272 15.448 44.3792 15.696 44.6832 15.856C44.9872 16.016 45.4432 16.192 46.0512 16.384C46.6752 16.576 47.1792 16.76 47.5632 16.936C47.9472 17.112 48.2832 17.384 48.5712 17.752C48.8592 18.104 49.0112 18.592 49.0272 19.216C49.0272 19.744 48.8832 20.216 48.5952 20.632C48.3232 21.048 47.9232 21.376 47.3952 21.616C46.8832 21.984 46.3632 22.168 45.7392 22.168ZM51.3015 18.304C51.3015 17.488 51.4615 16.768 51.7815 16.144C52.1015 15.504 52.5575 15.016 53.1495 14.68C53.7415 14.344 54.4135 14.176 55.1655 14.176C56.2855 14.176 57.1975 14.52 57.9015 15.208C58.6215 15.896 59.0295 16.824 59.1255 17.992L59.1495 18.496C59.1495 19.312 58.9895 20.04 58.6695 20.68C58.3655 21.32 57.9095 21.816 57.3015 22.168C56.7095 22.504 56.0295 22.672 55.2615 22.672C54.1015 22.672 53.1655 22.304 52.4535 21.568C51.7415 20.832 51.3815 19.848 51.3655 18.616L51.3015 18.304ZM53.6295 18.496C53.6295 19.312 53.7735 19.936 54.0615 20.368C54.3495 20.784 54.7575 20.992 55.2855 20.992C55.8135 20.992 56.2135 20.784 56.4855 20.368C56.7735 19.952 56.9175 19.312 56.9175 18.448C56.9175 17.648 56.7735 17.032 56.4855 16.6C56.2135 16.168 55.8055 15.952 55.2615 15.952C54.7335 15.952 54.3335 16.168 54.0615 16.6C53.7735 17.016 53.6295 17.648 53.6295 18.496Z" fill="white"/>
  <path d="M65.6648 14.176C66.6808 14.176 67.4888 14.472 68.0888 15.064C68.7048 15.656 69.0248 16.456 69.0488 17.464V22H66.7208V17.704C66.7208 17.128 66.5888 16.688 66.3248 16.384C66.0608 16.064 65.6728 15.904 65.1608 15.904C64.3928 15.904 63.8568 16.24 63.5528 16.912V22H61.2248V10.288H63.5528V15.304C64.1528 14.552 64.9448 14.176 65.6648 14.176ZM74.9178 22.168C73.8378 22.168 72.9258 21.88 72.1818 21.304C71.4538 20.728 71.0218 19.944 70.8858 18.952H73.2858C73.3658 19.352 73.5578 19.672 73.8618 19.912C74.1658 20.136 74.5498 20.248 75.0138 20.248C75.4458 20.248 75.7738 20.16 75.9978 19.984C76.2378 19.792 76.3578 19.552 76.3578 19.264C76.3578 18.928 76.2058 18.688 75.9018 18.544C75.6138 18.384 75.1498 18.208 74.5098 18.016C73.8858 17.84 73.3738 17.664 72.9738 17.488C72.5738 17.312 72.2298 17.04 71.9418 16.672C71.6538 16.304 71.5098 15.808 71.5098 15.184C71.5098 14.672 71.6458 14.208 71.9178 13.792C72.2058 13.376 72.6058 13.048 73.1178 12.808C73.6298 12.568 74.2218 12.448 74.8938 12.448C75.9258 12.448 76.7498 12.72 77.3658 13.264C77.9818 13.792 78.3418 14.512 78.4458 15.424H76.1658C76.1018 15.024 75.9338 14.72 75.6618 14.512C75.3898 14.288 75.0378 14.176 74.6058 14.176C74.2218 14.176 73.9258 14.264 73.7178 14.44C73.5098 14.6 73.4058 14.824 73.4058 15.112C73.4058 15.448 73.5578 15.696 73.8618 15.856C74.1658 16.016 74.6218 16.192 75.2298 16.384C75.8538 16.576 76.3578 16.76 76.7418 16.936C77.1258 17.112 77.4618 17.384 77.7498 17.752C78.0378 18.104 78.1898 18.592 78.2058 19.216C78.2058 19.744 78.0618 20.216 77.7738 20.632C77.5018 21.048 77.1018 21.376 76.5738 21.616C76.0618 21.984 75.4658 22.168 74.9178 22.168ZM83.3321 22.168C82.2362 22.168 81.3401 21.808 80.6441 21.088C79.9481 20.352 79.6001 19.384 79.6001 18.184V17.92C79.6001 17.088 79.7602 16.344 80.0801 15.688C80.4001 15.032 80.8481 14.52 81.4241 14.152C82.0161 13.784 82.6841 13.6 83.4281 13.6C84.4761 13.6 85.3001 13.944 85.9001 14.632C86.5161 15.32 86.8241 16.28 86.8241 17.512V18.376H81.9281C82.0001 18.92 82.2081 19.344 82.5521 19.648C82.8961 19.952 83.3281 20.104 83.8481 20.104C84.6481 20.104 85.2721 19.784 85.7201 19.144L86.6401 20.464C86.3201 21.008 85.8721 21.424 85.2961 21.712C84.7201 22.016 84.0681 22.168 83.3321 22.168ZM83.4121 15.664C83.0121 15.664 82.6841 15.8 82.4281 16.072C82.1721 16.344 82.0082 16.736 81.9362 17.248H84.7682V17.08C84.7521 16.616 84.6321 16.264 84.4081 16.024C84.1841 15.784 83.8521 15.664 83.4121 15.664Z" fill="white"/>
  <defs>
    <linearGradient id="paint0_linear" x1="6" y1="16" x2="26" y2="16" gradientUnits="userSpaceOnUse">
      <stop stop-color="#6D28D9"/>
      <stop offset="1" stop-color="#EC4899"/>
    </linearGradient>
  </defs>
</svg>